<svg width="20" height="20" viewBox="0 0 20 20" fill="none" xmlns="http://www.w3.org/2000/svg">
<path d="M17.0432 6.69043L10.9363 11.4698L13.7913 7.00105L13.3963 6.74918L10.2345 11.6982V6.87512H9.76571V11.6982L6.60384 6.74918L6.20884 7.00105L9.06384 11.4698L2.95696 6.69043L2.66821 7.0598L9.85571 12.6848H10.1445L17.332 7.0598L17.0432 6.69043Z" fill="#EFA400"/>
<g clip-path="url(#clip0_2010_468)">
<path d="M10.0001 0.078125C6.45481 0.078125 3.33543 2.91812 2.58262 6.83062C2.57316 6.88107 2.58056 6.93323 2.60366 6.97907C2.62676 7.02491 2.66429 7.06188 2.71047 7.08429C2.75665 7.10671 2.80891 7.11332 2.85922 7.10312C2.90952 7.09291 2.95508 7.06645 2.98887 7.02782C3.18586 6.78774 3.43302 6.59371 3.71299 6.45933C3.99296 6.32496 4.29896 6.25351 4.60949 6.25C4.91976 6.25362 5.22548 6.32506 5.50522 6.45932C5.78496 6.59357 6.03195 6.78739 6.22887 7.02718C6.25319 7.05366 6.28331 7.07415 6.31686 7.08705C6.35042 7.09996 6.38651 7.10492 6.42231 7.10157C6.80761 3.07469 8.26231 0.078125 10.0001 0.078125Z" fill="#FAE15A"/>
<path d="M17.4175 6.83062C16.6647 2.91812 13.5453 0.078125 10 0.078125C11.7378 0.078125 13.1925 3.07469 13.5778 7.10218C13.6136 7.10554 13.6497 7.10058 13.6832 7.08767C13.7168 7.07477 13.747 7.05428 13.7712 7.02782C13.9657 6.78525 14.2122 6.58948 14.4925 6.45496C14.7728 6.32043 15.0797 6.25059 15.3906 6.25059C15.7015 6.25059 16.0085 6.32043 16.2887 6.45496C16.569 6.58948 16.8156 6.78525 17.01 7.02782C17.0438 7.06645 17.0894 7.09291 17.1396 7.10312C17.19 7.11332 17.2422 7.10671 17.2884 7.08429C17.3345 7.06188 17.3721 7.02491 17.3952 6.97907C17.4183 6.93323 17.4257 6.88107 17.4162 6.83062H17.4175Z" fill="#FAE15A"/>
<path d="M10 0.078125V7.10531C10.0334 7.10585 10.0666 7.09921 10.0972 7.08584C10.1278 7.07247 10.1552 7.05268 10.1775 7.02782C10.372 6.78525 10.6185 6.58948 10.8988 6.45496C11.179 6.32043 11.486 6.25059 11.7969 6.25059C12.1078 6.25059 12.4147 6.32043 12.695 6.45496C12.9753 6.58948 13.2218 6.78525 13.4162 7.02782C13.4369 7.05034 13.4618 7.06852 13.4895 7.0813C13.5173 7.09407 13.5473 7.10118 13.5778 7.10218C13.1925 3.07469 11.7378 0.078125 10 0.078125Z" fill="#FAE15A"/>
<path d="M6.42212 7.10157C6.45264 7.10055 6.48266 7.09407 6.5104 7.0813C6.53814 7.06852 6.56306 7.05034 6.58368 7.02782C6.77816 6.78525 7.02465 6.58948 7.30494 6.45496C7.58523 6.32043 7.89215 6.25059 8.20305 6.25059C8.51395 6.25059 8.82089 6.32043 9.10117 6.45496C9.38146 6.58948 9.62794 6.78525 9.82243 7.02782C9.84474 7.05268 9.87214 7.07247 9.90276 7.08584C9.93339 7.09921 9.96652 7.10585 9.99993 7.10531V0.078125C8.26212 0.078125 6.80743 3.07469 6.42212 7.10157Z" fill="#FAE15A"/>
<path d="M3.37256 6.67187C3.72788 6.40026 4.16219 6.25213 4.60943 6.25C4.9197 6.25361 5.22543 6.32505 5.50517 6.45931C5.78491 6.59356 6.03189 6.78739 6.22881 7.02718C6.25313 7.05365 6.28325 7.07415 6.31681 7.08705C6.35037 7.09996 6.38645 7.10491 6.42225 7.10156C6.67818 4.42687 7.40631 2.21281 8.37693 1.02344C6.02756 1.85844 4.11725 3.95594 3.37256 6.67187Z" fill="#FFD64D"/>
<path d="M14.9141 2.14383C13.8695 1.31615 12.6118 0.801087 11.2866 0.658203C12.4229 1.71445 13.2929 4.12477 13.5779 7.10226C13.6137 7.10562 13.6498 7.10066 13.6833 7.08775C13.7169 7.07485 13.747 7.05436 13.7713 7.02789C13.9658 6.78533 14.2123 6.58956 14.4926 6.45504C14.7729 6.32051 15.0798 6.25067 15.3907 6.25067C15.7016 6.25067 16.0085 6.32051 16.2888 6.45504C16.5691 6.58956 16.8156 6.78533 17.01 7.02789C17.0439 7.06653 17.0895 7.09299 17.1397 7.10319C17.19 7.1134 17.2423 7.10679 17.2885 7.08437C17.3346 7.06196 17.3722 7.02499 17.3953 6.97915C17.4184 6.93331 17.4258 6.88115 17.4163 6.8307C17.0853 5.04786 16.2113 3.41089 14.9141 2.14383Z" fill="#E9B308"/>
<path d="M10 0.65625V7.10531C10.0334 7.10585 10.0666 7.09921 10.0972 7.08584C10.1278 7.07247 10.1552 7.05268 10.1775 7.02782C10.372 6.78525 10.6185 6.58948 10.8988 6.45496C11.179 6.32043 11.486 6.25059 11.7969 6.25059C12.1078 6.25059 12.4147 6.32043 12.695 6.45496C12.9753 6.58948 13.2218 6.78525 13.4162 7.02782C13.4369 7.05034 13.4618 7.06852 13.4895 7.0813C13.5173 7.09407 13.5473 7.10118 13.5778 7.10218C13.2928 4.12469 12.4215 1.71438 11.2865 0.658125C11.0678 0.636042 10.8473 0.625 10.625 0.625C10.415 0.625 10.2066 0.636563 10 0.65625Z" fill="#F5C115"/>
<path d="M9.82243 7.02782C9.84474 7.05268 9.87214 7.07247 9.90276 7.08584C9.93339 7.09921 9.96652 7.10585 9.99993 7.10531V0.65625C9.44578 0.710983 8.90056 0.834325 8.3768 1.02344C7.40805 2.21282 6.67805 4.42625 6.42212 7.10157C6.45264 7.10055 6.48266 7.09407 6.5104 7.0813C6.53814 7.06852 6.56306 7.05034 6.58368 7.02782C6.77816 6.78525 7.02465 6.58948 7.30494 6.45496C7.58523 6.32043 7.89215 6.25059 8.20305 6.25059C8.51395 6.25059 8.82089 6.32043 9.10117 6.45496C9.38146 6.58948 9.62794 6.78525 9.82243 7.02782Z" fill="#FFCE2C"/>
</g>
<path d="M10 19.6875C12.5888 19.6875 14.6875 17.5888 14.6875 15C14.6875 12.4112 12.5888 10.3125 10 10.3125C7.41117 10.3125 5.3125 12.4112 5.3125 15C5.3125 17.5888 7.41117 19.6875 10 19.6875Z" fill="#FAE15A"/>
<path d="M12.2422 10.8828C12.7267 11.7716 12.9106 12.7933 12.7662 13.7952C12.6218 14.7971 12.1569 15.7254 11.4412 16.4412C10.7254 17.1569 9.79713 17.6218 8.79522 17.7662C7.7933 17.9106 6.77157 17.7267 5.88281 17.2422C6.23162 17.882 6.72477 18.4316 7.32312 18.8475C7.92148 19.2634 8.60855 19.534 9.32978 19.638C10.051 19.7419 10.7866 19.6763 11.478 19.4463C12.1694 19.2163 12.7977 18.8282 13.313 18.313C13.8282 17.7977 14.2163 17.1694 14.4463 16.478C14.6763 15.7866 14.7419 15.051 14.638 14.3298C14.534 13.6085 14.2634 12.9215 13.8475 12.3231C13.4316 11.7248 12.882 11.2316 12.2422 10.8828Z" fill="#F5C115"/>
<path d="M10 19.0625C12.2437 19.0625 14.0625 17.2437 14.0625 15C14.0625 12.7563 12.2437 10.9375 10 10.9375C7.75634 10.9375 5.9375 12.7563 5.9375 15C5.9375 17.2437 7.75634 19.0625 10 19.0625Z" fill="#E68C00"/>
<path d="M5.9375 15C5.93612 15.9765 6.28785 16.9206 6.92782 17.6581C7.72069 17.8667 8.55437 17.8638 9.34578 17.6498C10.1372 17.4358 10.8587 17.0181 11.4384 16.4384C12.0181 15.8587 12.4358 15.1372 12.6498 14.3458C12.8638 13.5544 12.8667 12.7207 12.6581 11.9278C12.0694 11.4184 11.3466 11.0889 10.5759 10.9785C9.80527 10.8682 9.0191 10.9816 8.31102 11.3052C7.60295 11.6289 7.0028 12.1492 6.58201 12.8043C6.16121 13.4593 5.9375 14.2215 5.9375 15Z" fill="#EFA400"/>
<path d="M10 18.75C12.0711 18.75 13.75 17.0711 13.75 15C13.75 12.9289 12.0711 11.25 10 11.25C7.92893 11.25 6.25 12.9289 6.25 15C6.25 17.0711 7.92893 18.75 10 18.75Z" fill="#F5C115"/>
<path d="M12.7669 12.4688C12.868 13.1881 12.8007 13.9212 12.5702 14.6101C12.3398 15.2991 11.9524 15.925 11.4387 16.4387C10.925 16.9524 10.2991 17.3398 9.61012 17.5702C8.92119 17.8007 8.18814 17.868 7.46875 17.7669C8.18123 18.419 9.11788 18.7711 10.0835 18.7498C11.0492 18.7284 11.9694 18.3353 12.6523 17.6523C13.3353 16.9694 13.7284 16.0492 13.7498 15.0835C13.7711 14.1179 13.419 13.1812 12.7669 12.4688Z" fill="#EFA400"/>
<path d="M11.3547 17.2903L10.2344 16.7303V14.1406H9.76562V16.875C9.76566 16.9185 9.77781 16.9612 9.80071 16.9982C9.82362 17.0353 9.85637 17.0652 9.89531 17.0847L11.0156 17.6447V18.6069C11.1754 18.563 11.332 18.5084 11.4844 18.4434V17.5C11.4843 17.4565 11.4722 17.4138 11.4493 17.3768C11.4264 17.3397 11.3936 17.3098 11.3547 17.2903Z" fill="#EFA400"/>
<path d="M11.3547 17.2903L10.2344 16.7303V14.1406H9.76562V16.875C9.76566 16.9185 9.77781 16.9612 9.80071 16.9982C9.82362 17.0353 9.85637 17.0652 9.89531 17.0847L11.0156 17.6447V18.6106C11.1754 18.5658 11.332 18.5103 11.4844 18.4444V17.5C11.4843 17.4565 11.4722 17.4138 11.4493 17.3768C11.4264 17.3397 11.3936 17.3098 11.3547 17.2903Z" fill="#E68C00"/>
<path d="M10.2344 16.7303V14.1406H9.76562V16.875C9.76566 16.9185 9.77781 16.9612 9.80071 16.9982C9.82362 17.0353 9.85637 17.0652 9.89531 17.0847L10.2916 17.2828C10.4559 17.1971 10.6149 17.1016 10.7678 16.9969L10.2344 16.7303Z" fill="#EFA400"/>
<path d="M8.51562 18.4443C8.66796 18.5102 8.82456 18.5658 8.98438 18.6106V16.9543H8.51562V18.4443Z" fill="#E68C00"/>
<path d="M8.98438 16.9531H8.51562V17.7969C8.67282 17.7839 8.82927 17.763 8.98438 17.7344V16.9531Z" fill="#EFA400"/>
<path d="M9.14062 11.349V12.6678L8.02031 13.2278C7.98137 13.2472 7.94862 13.2772 7.92571 13.3142C7.90281 13.3512 7.89066 13.3939 7.89062 13.4375V15.8593H8.35938V13.5821L9.47969 13.0221C9.51863 13.0027 9.55138 12.9727 9.57429 12.9357C9.59719 12.8987 9.60934 12.856 9.60938 12.8125V11.2703C9.45159 11.2864 9.29501 11.3127 9.14062 11.349Z" fill="#EFA400"/>
<path d="M10.3906 11.2703V12.8125C10.3907 12.856 10.4028 12.8987 10.4257 12.9357C10.4486 12.9727 10.4814 13.0027 10.5203 13.0221L11.6406 13.5821V15.8593H12.1094V13.4375C12.1093 13.3939 12.0972 13.3512 12.0743 13.3142C12.0514 13.2772 12.0186 13.2472 11.9797 13.2278L10.8594 12.6678V11.349C10.705 11.3127 10.5484 11.2864 10.3906 11.2703Z" fill="#EFA400"/>
<path d="M11.875 16.0938C12.1339 16.0938 12.3438 15.8839 12.3438 15.625C12.3438 15.3661 12.1339 15.1562 11.875 15.1562C11.6161 15.1562 11.4062 15.3661 11.4062 15.625C11.4062 15.8839 11.6161 16.0938 11.875 16.0938Z" fill="#FAE15A"/>
<path d="M10 14.8438C10.2589 14.8438 10.4688 14.6339 10.4688 14.375C10.4688 14.1161 10.2589 13.9062 10 13.9062C9.74112 13.9062 9.53125 14.1161 9.53125 14.375C9.53125 14.6339 9.74112 14.8438 10 14.8438Z" fill="#FAE15A"/>
<path d="M8.125 16.0938C8.38388 16.0938 8.59375 15.8839 8.59375 15.625C8.59375 15.3661 8.38388 15.1562 8.125 15.1562C7.86612 15.1562 7.65625 15.3661 7.65625 15.625C7.65625 15.8839 7.86612 16.0938 8.125 16.0938Z" fill="#FAE15A"/>
<defs>
<clipPath id="clip0_2010_468">
<rect width="15" height="7.5" fill="white" transform="translate(2.5)"/>
</clipPath>
</defs>
</svg>
