<svg width="15" height="17" viewBox="0 0 15 17" fill="none" xmlns="http://www.w3.org/2000/svg">
<path d="M0.52002 8.46278L0.75 11.1135C1.125 14.1135 2.99962 16.7385 6.05836 16.7385C6.19594 16.7385 6.44108 16.6167 6.69488 16.4699C7.20943 16.1723 7.78773 16.1767 8.29838 16.481C8.53634 16.6228 8.7643 16.7385 8.89575 16.7385C11.98 16.7385 13.875 14.1135 14.25 11.1135L14.4802 8.4003C14.4802 5.88844 12.4254 3.85217 9.93608 3.85217C9.27764 3.85217 8.66417 4.06298 8.16134 4.42136C7.78478 4.68974 7.22706 4.68776 6.85123 4.41836C6.35382 4.0618 5.74575 3.85217 5.08915 3.85217C2.56569 3.85217 0.52002 5.86354 0.52002 8.46278Z" fill="black"/>
<path d="M7.84345 2.15841L7.97544 2.61817C7.98181 2.64035 7.97921 2.66267 7.9698 2.68146C7.95821 2.69765 7.9409 2.70996 7.91969 2.71524L7.45911 2.82993C6.50533 2.96887 5.55869 2.37386 5.28803 1.43105L5.22054 1.19597C5.20101 1.12794 5.24181 1.05728 5.31049 1.04018L5.54782 0.981081C6.49844 0.744376 7.48574 1.26504 7.84345 2.15841Z" fill="black" stroke="black" stroke-width="1.25"/>
</svg>
