<svg width="70" height="67" viewBox="0 0 70 67" fill="none" xmlns="http://www.w3.org/2000/svg">
<g filter="url(#filter0_d_144_2868)">
<path d="M45.0758 32.5001C45.0758 26.9353 40.5647 22.4242 34.9999 22.4242C29.4352 22.4242 24.9241 26.9353 24.9241 32.5001C24.9241 38.0648 29.4352 42.5759 34.9999 42.5759C40.5647 42.5759 45.0758 38.0648 45.0758 32.5001Z" fill="#E9B308"/>
</g>
<g filter="url(#filter1_i_144_2868)">
<path d="M42.2546 32.5C42.2546 28.4934 39.0066 25.2454 35 25.2454C30.9934 25.2454 27.7454 28.4934 27.7454 32.5C27.7454 36.5066 30.9934 39.7546 35 39.7546C39.0066 39.7546 42.2546 36.5066 42.2546 32.5Z" fill="#E9B308"/>
</g>
<g filter="url(#filter2_i_144_2868)">
<path fill-rule="evenodd" clip-rule="evenodd" d="M34.8741 29.682C34.1283 29.682 34.0539 29.7607 33.668 29.7607C33.3464 29.7607 32.3815 28.9735 31.8991 28.9735C31.4166 28.9735 30.8538 29.2569 30.8538 30.0756V31.0202C30.8548 31.2681 30.9449 32.0282 31.2975 31.8251C30.8806 32.3178 30.8385 32.8923 30.8442 33.4485C30.7319 33.481 30.6173 33.5175 30.5062 33.5555C30.1616 33.6733 29.7962 33.8236 29.6312 33.9302C29.4559 34.0434 29.4055 34.2773 29.5187 34.4526C29.632 34.6279 29.8658 34.6782 30.0411 34.565C30.1198 34.5142 30.4045 34.3889 30.7506 34.2706C30.7889 34.2575 30.8272 34.2447 30.8654 34.2324C30.8886 34.451 30.9465 34.6504 31.0325 34.8322L31.0206 34.8385C30.8142 34.9475 30.6227 35.0728 30.5005 35.1526C30.4794 35.1664 30.4604 35.1789 30.4437 35.1897C30.2684 35.3029 30.218 35.5368 30.3313 35.7121C30.4445 35.8874 30.6784 35.9377 30.8536 35.8245C30.8744 35.8111 30.8964 35.7967 30.9197 35.7815C31.0434 35.7008 31.2014 35.5976 31.3737 35.5066C31.4141 35.4853 31.453 35.4659 31.4901 35.4485C32.3619 36.2658 33.9269 36.5304 34.8741 36.5304C35.8213 36.5304 37.3863 36.2658 38.258 35.4485C38.2952 35.4659 38.334 35.4853 38.3745 35.5066C38.5468 35.5976 38.7048 35.7008 38.8284 35.7815C38.8517 35.7967 38.8738 35.8111 38.8945 35.8245C39.0698 35.9377 39.3036 35.8874 39.4169 35.7121C39.5301 35.5368 39.4798 35.3029 39.3045 35.1897C39.2877 35.1789 39.2687 35.1664 39.2476 35.1526C39.1254 35.0728 38.9339 34.9475 38.7275 34.8385L38.7156 34.8322C38.8017 34.6504 38.8595 34.4509 38.8828 34.2323C38.921 34.2447 38.9594 34.2575 38.9977 34.2706C39.3439 34.3889 39.6285 34.5142 39.7072 34.565C39.8825 34.6782 40.1164 34.6279 40.2296 34.4526C40.3428 34.2773 40.2924 34.0434 40.1172 33.9302C39.9521 33.8236 39.5867 33.6733 39.2422 33.5555C39.1309 33.5175 39.0163 33.4809 38.904 33.4485C38.9097 32.8923 38.8676 32.3178 38.4507 31.8251C38.8033 32.0282 38.8934 31.2681 38.8944 31.0202V30.0756C38.8944 29.2569 38.3315 28.9736 37.8491 28.9736C37.3667 28.9736 36.4018 29.7607 36.0802 29.7607C35.6942 29.7607 35.6199 29.682 34.8741 29.682ZM34.5337 34.3139C34.6358 34.2791 34.7562 34.2633 34.8741 34.2633C34.9919 34.2633 35.1124 34.2791 35.2144 34.3139C35.2645 34.331 35.3258 34.3578 35.3797 34.4013C35.4339 34.4449 35.5038 34.5256 35.5038 34.6412C35.5038 34.7568 35.4339 34.8375 35.3797 34.8811C35.3258 34.9245 35.2645 34.9514 35.2144 34.9685C35.1124 35.0032 34.9919 35.019 34.8741 35.019C34.7562 35.019 34.6358 35.0032 34.5337 34.9685C34.4837 34.9514 34.4224 34.9245 34.3684 34.8811C34.3143 34.8375 34.2443 34.7568 34.2443 34.6412C34.2443 34.5256 34.3143 34.4449 34.3684 34.4013C34.4224 34.3578 34.4837 34.331 34.5337 34.3139ZM35.9673 32.7522C36.0361 32.6372 36.1718 32.5001 36.3754 32.5001C36.579 32.5001 36.7147 32.6372 36.7834 32.7522C36.8551 32.8722 36.8893 33.0177 36.8893 33.1613C36.8893 33.3049 36.8551 33.4504 36.7834 33.5704C36.7147 33.6854 36.579 33.8225 36.3754 33.8225C36.1718 33.8225 36.0361 33.6854 35.9673 33.5704C35.8956 33.4504 35.8615 33.3049 35.8615 33.1613C35.8615 33.0177 35.8956 32.8722 35.9673 32.7522ZM32.9647 32.7522C33.0335 32.6372 33.1692 32.5001 33.3728 32.5001C33.5764 32.5001 33.7121 32.6372 33.7808 32.7522C33.8525 32.8722 33.8867 33.0177 33.8867 33.1613C33.8867 33.3049 33.8525 33.4504 33.7808 33.5704C33.7121 33.6854 33.5764 33.8225 33.3728 33.8225C33.1692 33.8225 33.0335 33.6854 32.9647 33.5704C32.8931 33.4504 32.8589 33.3049 32.8589 33.1613C32.8589 33.0177 32.8931 32.8722 32.9647 32.7522Z" fill="#9B790D"/>
</g>
<defs>
<filter id="filter0_d_144_2868" x="0.924072" y="-1.57581" width="68.1516" height="68.1517" filterUnits="userSpaceOnUse" color-interpolation-filters="sRGB">
<feFlood flood-opacity="0" result="BackgroundImageFix"/>
<feColorMatrix in="SourceAlpha" type="matrix" values="0 0 0 0 0 0 0 0 0 0 0 0 0 0 0 0 0 0 127 0" result="hardAlpha"/>
<feOffset/>
<feGaussianBlur stdDeviation="12"/>
<feComposite in2="hardAlpha" operator="out"/>
<feColorMatrix type="matrix" values="0 0 0 0 0 0 0 0 0 0 0 0 0 0 0 0 0 0 0.12 0"/>
<feBlend mode="normal" in2="BackgroundImageFix" result="effect1_dropShadow_144_2868"/>
<feBlend mode="normal" in="SourceGraphic" in2="effect1_dropShadow_144_2868" result="shape"/>
</filter>
<filter id="filter1_i_144_2868" x="27.7454" y="25.2454" width="14.5093" height="15.5093" filterUnits="userSpaceOnUse" color-interpolation-filters="sRGB">
<feFlood flood-opacity="0" result="BackgroundImageFix"/>
<feBlend mode="normal" in="SourceGraphic" in2="BackgroundImageFix" result="shape"/>
<feColorMatrix in="SourceAlpha" type="matrix" values="0 0 0 0 0 0 0 0 0 0 0 0 0 0 0 0 0 0 127 0" result="hardAlpha"/>
<feOffset dy="1"/>
<feGaussianBlur stdDeviation="4"/>
<feComposite in2="hardAlpha" operator="arithmetic" k2="-1" k3="1"/>
<feColorMatrix type="matrix" values="0 0 0 0 0 0 0 0 0 0 0 0 0 0 0 0 0 0 0.12 0"/>
<feBlend mode="normal" in2="shape" result="effect1_innerShadow_144_2868"/>
</filter>
<filter id="filter2_i_144_2868" x="29.4583" y="28.9735" width="10.8318" height="8.55688" filterUnits="userSpaceOnUse" color-interpolation-filters="sRGB">
<feFlood flood-opacity="0" result="BackgroundImageFix"/>
<feBlend mode="normal" in="SourceGraphic" in2="BackgroundImageFix" result="shape"/>
<feColorMatrix in="SourceAlpha" type="matrix" values="0 0 0 0 0 0 0 0 0 0 0 0 0 0 0 0 0 0 127 0" result="hardAlpha"/>
<feOffset dy="1"/>
<feGaussianBlur stdDeviation="2"/>
<feComposite in2="hardAlpha" operator="arithmetic" k2="-1" k3="1"/>
<feColorMatrix type="matrix" values="0 0 0 0 0 0 0 0 0 0 0 0 0 0 0 0 0 0 0.2 0"/>
<feBlend mode="normal" in2="shape" result="effect1_innerShadow_144_2868"/>
</filter>
</defs>
</svg>
