<svg width="62" height="62" viewBox="0 0 62 62" fill="none" xmlns="http://www.w3.org/2000/svg">
<path d="M61.2274 31.0001C61.2274 14.3058 47.6941 0.772461 30.9998 0.772461C14.3056 0.772461 0.772217 14.3058 0.772217 31.0001C0.772217 47.6943 14.3056 61.2277 30.9998 61.2277C47.6941 61.2277 61.2274 47.6943 61.2274 31.0001Z" fill="#E9B308"/>
<g filter="url(#filter0_i_130_15586)">
<path d="M52.7638 31C52.7638 18.9801 43.0198 9.23608 31 9.23608C18.9801 9.23608 9.23608 18.9801 9.23608 31C9.23608 43.0198 18.9801 52.7638 31 52.7638C43.0198 52.7638 52.7638 43.0198 52.7638 31Z" fill="#E9B308"/>
</g>
<g filter="url(#filter1_i_130_15586)">
<path fill-rule="evenodd" clip-rule="evenodd" d="M30.6223 22.546C28.3849 22.546 28.1618 22.7819 27.004 22.7819C26.0391 22.7819 23.1445 20.4204 21.6972 20.4204C20.2499 20.4204 18.5614 21.2705 18.5614 23.7266V26.5604C18.5643 27.3043 18.8346 29.5845 19.8925 28.9752C18.6418 30.4533 18.5154 32.1768 18.5326 33.8455C18.1957 33.9428 17.852 34.0524 17.5185 34.1665C16.4849 34.5198 15.3887 34.9706 14.8935 35.2905C14.3676 35.6301 14.2166 36.3317 14.5562 36.8576C14.8959 37.3835 15.5975 37.5346 16.1234 37.1949C16.3595 37.0424 17.2135 36.6667 18.2519 36.3116C18.3667 36.2724 18.4817 36.2341 18.5961 36.1971C18.6659 36.8528 18.8395 37.4512 19.0975 37.9965L19.0619 38.0152C18.4426 38.3425 17.868 38.7182 17.5016 38.9577C17.4383 38.9992 17.3811 39.0366 17.331 39.0689C16.8051 39.4085 16.6541 40.1102 16.9938 40.6361C17.3334 41.162 18.0351 41.313 18.5609 40.9733C18.6231 40.9332 18.6893 40.8899 18.7592 40.8444C19.1301 40.6023 19.6042 40.2928 20.121 40.0197C20.2423 39.9557 20.3589 39.8975 20.4704 39.8453C23.0856 42.2973 27.7806 43.0911 30.6222 43.0911C33.4639 43.0911 38.1589 42.2973 40.7741 39.8453C40.8856 39.8975 41.0021 39.9557 41.1234 40.0197C41.6403 40.2928 42.1143 40.6023 42.4851 40.8443C42.555 40.8899 42.6213 40.9332 42.6834 40.9733C43.2093 41.313 43.9109 41.162 44.2506 40.6361C44.5902 40.1102 44.4393 39.4085 43.9134 39.0689C43.8632 39.0366 43.8061 38.9992 43.7427 38.9577C43.3763 38.7181 42.8017 38.3425 42.1825 38.0152L42.1469 37.9965C42.405 37.4512 42.5786 36.8527 42.6485 36.1969C42.763 36.234 42.8782 36.2723 42.9931 36.3116C44.0316 36.6667 44.8855 37.0424 45.1216 37.1949C45.6475 37.5346 46.3492 37.3835 46.6888 36.8576C47.0284 36.3317 46.8773 35.6301 46.3516 35.2905C45.8564 34.9706 44.7602 34.5198 43.7266 34.1665C43.3928 34.0523 43.0489 33.9427 42.7119 33.8453C42.7291 32.1766 42.6027 30.4532 41.3521 28.9752C42.4099 29.5845 42.6802 27.3043 42.6832 26.5604V23.7267C42.6832 21.2707 40.9946 20.4206 39.5474 20.4206C38.1001 20.4206 35.2054 22.7819 34.2405 22.7819C33.0827 22.7819 32.8597 22.546 30.6223 22.546ZM29.6011 36.4416C29.9074 36.3373 30.2687 36.2899 30.6222 36.2899C30.9758 36.2899 31.3371 36.3373 31.6433 36.4416C31.7936 36.4928 31.9773 36.5734 32.1392 36.7037C32.3016 36.8345 32.5115 37.0767 32.5115 37.4234C32.5115 37.7701 32.3016 38.0124 32.1392 38.1432C31.9773 38.2735 31.7936 38.3541 31.6433 38.4053C31.3371 38.5096 30.9758 38.557 30.6222 38.557C30.2687 38.557 29.9074 38.5096 29.6011 38.4053C29.451 38.3541 29.2672 38.2735 29.1053 38.1432C28.9429 38.0124 28.733 37.7701 28.733 37.4234C28.733 37.0767 28.9429 36.8345 29.1053 36.7037C29.2672 36.5734 29.451 36.4928 29.6011 36.4416ZM33.902 31.7565C34.1082 31.4113 34.5154 31.0001 35.1261 31.0001C35.7369 31.0001 36.1441 31.4113 36.3503 31.7565C36.5653 32.1166 36.6678 32.5529 36.6678 32.9837C36.6678 33.4146 36.5653 33.851 36.3503 34.211C36.1441 34.5562 35.7369 34.9674 35.1261 34.9674C34.5154 34.9674 34.1082 34.5562 33.902 34.211C33.6869 33.851 33.5845 33.4146 33.5845 32.9837C33.5845 32.5529 33.6869 32.1166 33.902 31.7565ZM24.8942 31.7565C25.1004 31.4113 25.5076 31.0001 26.1184 31.0001C26.7291 31.0001 27.1363 31.4113 27.3425 31.7565C27.5576 32.1166 27.66 32.5529 27.66 32.9837C27.66 33.4146 27.5576 33.851 27.3425 34.211C27.1363 34.5562 26.7291 34.9674 26.1184 34.9674C25.5076 34.9674 25.1004 34.5562 24.8942 34.211C24.6792 33.851 24.5767 33.4146 24.5767 32.9837C24.5767 32.5529 24.6792 32.1166 24.8942 31.7565Z" fill="#E68C00"/>
</g>
<defs>
<filter id="filter0_i_130_15586" x="9.23608" y="9.23608" width="43.5278" height="44.5278" filterUnits="userSpaceOnUse" color-interpolation-filters="sRGB">
<feFlood flood-opacity="0" result="BackgroundImageFix"/>
<feBlend mode="normal" in="SourceGraphic" in2="BackgroundImageFix" result="shape"/>
<feColorMatrix in="SourceAlpha" type="matrix" values="0 0 0 0 0 0 0 0 0 0 0 0 0 0 0 0 0 0 127 0" result="hardAlpha"/>
<feOffset dy="1"/>
<feGaussianBlur stdDeviation="4"/>
<feComposite in2="hardAlpha" operator="arithmetic" k2="-1" k3="1"/>
<feColorMatrix type="matrix" values="0 0 0 0 0 0 0 0 0 0 0 0 0 0 0 0 0 0 0.12 0"/>
<feBlend mode="normal" in2="shape" result="effect1_innerShadow_130_15586"/>
</filter>
<filter id="filter1_i_130_15586" x="14.3748" y="20.4204" width="32.4954" height="23.6707" filterUnits="userSpaceOnUse" color-interpolation-filters="sRGB">
<feFlood flood-opacity="0" result="BackgroundImageFix"/>
<feBlend mode="normal" in="SourceGraphic" in2="BackgroundImageFix" result="shape"/>
<feColorMatrix in="SourceAlpha" type="matrix" values="0 0 0 0 0 0 0 0 0 0 0 0 0 0 0 0 0 0 127 0" result="hardAlpha"/>
<feOffset dy="1"/>
<feGaussianBlur stdDeviation="2"/>
<feComposite in2="hardAlpha" operator="arithmetic" k2="-1" k3="1"/>
<feColorMatrix type="matrix" values="0 0 0 0 0 0 0 0 0 0 0 0 0 0 0 0 0 0 0.2 0"/>
<feBlend mode="normal" in2="shape" result="effect1_innerShadow_130_15586"/>
</filter>
</defs>
</svg>
