<svg width="22" height="15" viewBox="0 0 22 15" fill="none" xmlns="http://www.w3.org/2000/svg">
<path fill-rule="evenodd" clip-rule="evenodd" d="M10.7501 1.40636C9.26977 1.40636 9.12218 1.5625 8.3561 1.5625C7.71769 1.5625 5.80245 0 4.84485 0C3.88724 0 2.77004 0.5625 2.77004 2.1875V4.0625C2.77197 4.55469 2.95081 6.0634 3.65075 5.66022C2.82323 6.63825 2.73963 7.77857 2.751 8.88263C2.52812 8.94705 2.30072 9.01957 2.08003 9.09502C1.39614 9.32885 0.670852 9.62711 0.343196 9.83872C-0.00475949 10.0634 -0.104661 10.5277 0.12006 10.8756C0.344781 11.2236 0.809027 11.3235 1.15698 11.0988C1.3132 10.9979 1.87823 10.7493 2.56532 10.5144C2.64124 10.4884 2.71731 10.4631 2.79298 10.4386C2.83925 10.8724 2.95408 11.2684 3.12478 11.6292L3.1012 11.6416C2.69148 11.8581 2.3113 12.1067 2.06889 12.2652C2.02694 12.2926 1.98912 12.3173 1.95599 12.3387C1.60803 12.5634 1.50813 13.0277 1.73285 13.3756C1.95757 13.7236 2.42182 13.8235 2.76978 13.5988C2.8109 13.5722 2.85472 13.5436 2.90097 13.5134C3.1463 13.3533 3.45999 13.1485 3.80199 12.9678C3.88218 12.9254 3.95935 12.887 4.03317 12.8524C5.76347 14.4748 8.86991 15 10.7501 15C12.6302 15 15.7367 14.4748 17.467 12.8524C17.5408 12.887 17.6179 12.9254 17.6981 12.9678C18.0401 13.1485 18.3538 13.3533 18.5991 13.5134C18.6454 13.5436 18.6892 13.5722 18.7303 13.5988C19.0783 13.8235 19.5425 13.7236 19.7673 13.3756C19.992 13.0277 19.8921 12.5634 19.5441 12.3387C19.511 12.3173 19.4732 12.2926 19.4312 12.2652C19.1888 12.1067 18.8086 11.8581 18.3989 11.6416L18.3754 11.6292C18.5461 11.2683 18.6609 10.8724 18.7072 10.4385C18.783 10.463 18.8592 10.4883 18.9352 10.5144C19.6223 10.7493 20.1874 10.9979 20.3436 11.0988C20.6915 11.3235 21.1558 11.2236 21.3805 10.8756C21.6052 10.5277 21.5053 10.0634 21.1574 9.83872C20.8297 9.62711 20.1044 9.32885 19.4205 9.09502C19.1997 9.01952 18.9722 8.94696 18.7492 8.88252C18.7605 7.77849 18.6769 6.63821 17.8494 5.66022C18.5494 6.0634 18.7282 4.55469 18.7302 4.0625V2.18761C18.7302 0.562614 17.6129 0.000114357 16.6553 0.000114357C15.6977 0.000114357 13.7825 1.5625 13.1441 1.5625C12.378 1.5625 12.2305 1.40636 10.7501 1.40636ZM10.0745 10.6004C10.2771 10.5314 10.5162 10.5 10.7501 10.5C10.984 10.5 11.2231 10.5314 11.4257 10.6004C11.5251 10.6342 11.6467 10.6876 11.7537 10.7738C11.8612 10.8603 12.0001 11.0206 12.0001 11.25C12.0001 11.4794 11.8612 11.6397 11.7537 11.7262C11.6467 11.8124 11.5251 11.8658 11.4257 11.8996C11.2231 11.9686 10.984 12 10.7501 12C10.5162 12 10.2771 11.9686 10.0745 11.8996C9.97511 11.8658 9.85352 11.8124 9.74643 11.7262C9.63894 11.6397 9.50009 11.4794 9.50009 11.25C9.50009 11.0206 9.63894 10.8603 9.74643 10.7738C9.85352 10.6876 9.97511 10.6342 10.0745 10.6004ZM12.9201 7.5005C13.0566 7.27211 13.326 7 13.7301 7C14.1342 7 14.4036 7.27211 14.54 7.5005C14.6823 7.73872 14.7501 8.02745 14.7501 8.3125C14.7501 8.59755 14.6823 8.88628 14.54 9.1245C14.4036 9.35289 14.1342 9.625 13.7301 9.625C13.326 9.625 13.0566 9.35289 12.9201 9.1245C12.7778 8.88628 12.7101 8.59755 12.7101 8.3125C12.7101 8.02745 12.7778 7.73872 12.9201 7.5005ZM6.96016 7.5005C7.09658 7.27211 7.36599 7 7.7701 7C8.17421 7 8.44362 7.27211 8.58004 7.5005C8.72234 7.73872 8.79011 8.02745 8.79011 8.3125C8.79011 8.59755 8.72234 8.88628 8.58004 9.1245C8.44362 9.35289 8.17421 9.625 7.7701 9.625C7.36599 9.625 7.09658 9.35289 6.96016 9.1245C6.81786 8.88628 6.75009 8.59755 6.75009 8.3125C6.75009 8.02745 6.81786 7.73872 6.96016 7.5005Z" fill="white"/>
</svg>
