<svg width="36" height="32" viewBox="0 0 36 32" fill="none" xmlns="http://www.w3.org/2000/svg">
<path d="M29.3847 16.0001V24.0001C29.3847 26.9467 26.8374 29.3334 23.6924 29.3334H12.3076C9.16257 29.3334 6.61523 26.9467 6.61523 24.0001V16.0001C6.61523 15.2667 7.25563 14.6667 8.03833 14.6667H10.8418C11.6245 14.6667 12.2649 15.2667 12.2649 16.0001V20.1867C12.2649 21.1734 12.8484 22.0801 13.7734 22.5467C14.1861 22.7601 14.6415 22.8667 15.1111 22.8667C15.6519 22.8667 16.1927 22.7201 16.6623 22.4267L18.0142 21.6001L19.2665 22.3867C20.1346 22.9334 21.2446 23.0001 22.1697 22.5334C23.1089 22.0667 23.6924 21.1734 23.6924 20.1734V16.0001C23.6924 15.2667 24.3328 14.6667 25.1155 14.6667H27.9616C28.7443 14.6667 29.3847 15.2667 29.3847 16.0001Z" fill="white"/>
<path d="M31.5193 9.33341V10.6667C31.5193 12.1334 30.765 13.3334 28.6731 13.3334H7.32666C5.14932 13.3334 4.48047 12.1334 4.48047 10.6667V9.33341C4.48047 7.86675 5.14932 6.66675 7.32666 6.66675H28.6731C30.765 6.66675 31.5193 7.86675 31.5193 9.33341Z" fill="white"/>
<path d="M17.4878 6.66659H9.63231C9.14845 6.17325 9.16269 5.41326 9.675 4.93326L11.6958 3.03992C12.2223 2.54659 13.0904 2.54659 13.617 3.03992L17.4878 6.66659Z" fill="white"/>
<path d="M26.3535 6.66659H18.498L22.3689 3.03992C22.8954 2.54659 23.7635 2.54659 24.29 3.03992L26.3108 4.93326C26.8231 5.41326 26.8374 6.17325 26.3535 6.66659Z" fill="white"/>
<path d="M20.8037 14.6667C21.5864 14.6667 22.2268 15.2667 22.2268 16.0001V20.1734C22.2268 21.2401 20.9602 21.8801 20.021 21.2801L18.7402 20.4801C18.2706 20.1867 17.6586 20.1867 17.1748 20.4801L15.8371 21.3067C14.8978 21.8934 13.6455 21.2534 13.6455 20.2001V16.0001C13.6455 15.2667 14.2859 14.6667 15.0686 14.6667H20.8037Z" fill="white"/>
</svg>
