<svg width="20" height="20" viewBox="0 0 20 20" fill="none" xmlns="http://www.w3.org/2000/svg">
<path d="M18.3334 9.99996C18.3334 5.39759 14.6025 1.66663 10.0001 1.66663C5.39771 1.66663 1.66675 5.39759 1.66675 9.99996C1.66675 14.6023 5.39771 18.3333 10.0001 18.3333C14.6025 18.3333 18.3334 14.6023 18.3334 9.99996Z" fill="white" stroke="white" stroke-width="1.5"/>
<path d="M7.91675 7.26497C8.02913 6.96864 8.19894 6.70303 8.41169 6.48341C8.80127 6.08123 9.33484 5.83325 9.92339 5.83325C11.1163 5.83325 12.0834 6.85205 12.0834 8.10879C12.0834 9.186 11.3729 10.0884 10.4187 10.3242C10.1506 10.3905 9.92339 10.6082 9.92339 10.8843V11.6666" stroke="black" stroke-width="1.5" stroke-linecap="round"/>
<path d="M10.0001 15.2083C10.4603 15.2083 10.8334 14.8352 10.8334 14.375C10.8334 13.9147 10.4603 13.5416 10.0001 13.5416C9.53984 13.5416 9.16675 13.9147 9.16675 14.375C9.16675 14.8352 9.53984 15.2083 10.0001 15.2083Z" fill="black"/>
</svg>
