<svg width="16" height="13" viewBox="0 0 16 13" fill="none" xmlns="http://www.w3.org/2000/svg">
<path d="M15.5 8.5V6.98131C15.5 5.59709 15.5 4.90497 15.2059 4.38774C15.0057 4.03575 14.7142 3.74431 14.3623 3.54414C13.845 3.25 13.1529 3.25 11.7687 3.25H11.559C11.4668 3.25 11.4207 3.25 11.3782 3.24513C11.1563 3.21971 10.9572 3.09669 10.8352 2.90957C10.8119 2.8737 10.7912 2.83247 10.75 2.75C10.6675 2.58509 10.6263 2.50259 10.5795 2.43086C10.3356 2.05661 9.93749 1.81058 9.49364 1.75974C9.40857 1.75 9.31637 1.75 9.13197 1.75H6.86803C6.68363 1.75 6.59143 1.75 6.50636 1.75974C6.06251 1.81058 5.66443 2.05661 5.42046 2.43086C5.3737 2.50259 5.33247 2.58506 5.25 2.75C5.20877 2.83246 5.18815 2.87371 5.16477 2.90957C5.04279 3.09669 4.84374 3.21971 4.62182 3.24513C4.57929 3.25 4.53319 3.25 4.44098 3.25H4.23131C2.84709 3.25 2.15497 3.25 1.63774 3.54414C1.28575 3.74431 0.994311 4.03575 0.794144 4.38774C0.5 4.90497 0.5 5.59709 0.5 6.98131V8.5C0.5 10.6213 0.5 11.682 1.15901 12.341C1.81802 13 2.87868 13 5 13H11C13.1213 13 14.182 13 14.841 12.341C15.5 11.682 15.5 10.6213 15.5 8.5Z" fill="black"/>
<path d="M2.78357 0.437503C3.10818 0.437464 3.4058 0.437429 3.64791 0.46998C3.91452 0.505825 4.19632 0.59016 4.42808 0.821928C4.65985 1.0537 4.74419 1.33549 4.78003 1.6021C4.78224 1.61851 4.78429 1.63518 4.78621 1.6521C4.81156 1.87569 4.74401 2.09795 4.6386 2.29676C4.57335 2.41984 4.44593 2.49971 4.30662 2.49989L4.19722 2.5C3.53409 2.49999 2.98685 2.49998 2.54253 2.53976C2.08051 2.58112 1.65762 2.67005 1.26698 2.89219C1.05632 3.01199 0.861929 3.15631 0.687504 3.32144L0.687503 2.46644C0.687464 2.14183 0.687429 1.84421 0.71998 1.6021C0.755825 1.33549 0.84016 1.0537 1.07193 0.821928C1.3037 0.59016 1.58549 0.505825 1.8521 0.46998C2.09421 0.437429 2.39183 0.437464 2.71644 0.437503H2.78357Z" fill="black"/>
<path d="M13.2836 0.437503C13.6082 0.437464 13.9058 0.437429 14.1479 0.46998C14.4145 0.505825 14.6963 0.59016 14.9281 0.821928C15.1599 1.0537 15.2442 1.33549 15.28 1.6021C15.3126 1.84419 15.3125 2.14186 15.3125 2.46645L15.3125 3.32145C15.1381 3.15632 14.9437 3.01199 14.733 2.89219C14.3424 2.67005 13.9195 2.58112 13.4575 2.53976C13.0132 2.49998 12.4659 2.49999 11.8028 2.5L11.6878 2.49916C11.5497 2.49816 11.4239 2.41861 11.3597 2.29632C11.2556 2.0977 11.1885 1.8761 11.2137 1.65324C11.2156 1.63593 11.2177 1.61888 11.22 1.6021C11.2558 1.33549 11.3402 1.0537 11.5719 0.821928C11.8037 0.59016 12.0855 0.505825 12.3521 0.46998C12.5942 0.437429 12.8918 0.437464 13.2164 0.437503H13.2836Z" fill="black"/>
<path fill-rule="evenodd" clip-rule="evenodd" d="M11.375 6.4375C11.6857 6.4375 11.9375 6.68934 11.9375 7V7.56251H12.5C12.8107 7.56251 13.0625 7.81435 13.0625 8.12501C13.0625 8.43567 12.8107 8.68751 12.5 8.68751H11.9375V9.25C11.9375 9.56066 11.6857 9.8125 11.375 9.8125C11.0643 9.8125 10.8125 9.56066 10.8125 9.25V8.68751H10.25C9.93934 8.68751 9.6875 8.43567 9.6875 8.12501C9.6875 7.81435 9.93934 7.56251 10.25 7.56251H10.8125V7C10.8125 6.68934 11.0643 6.4375 11.375 6.4375ZM2.9375 8.125C2.9375 7.81434 3.18934 7.5625 3.5 7.5625H5.75C6.06066 7.5625 6.3125 7.81434 6.3125 8.125C6.3125 8.43566 6.06066 8.6875 5.75 8.6875H3.5C3.18934 8.6875 2.9375 8.43566 2.9375 8.125Z" fill="#12FF51"/>
</svg>
