<svg width="15" height="16" viewBox="0 0 15 16" fill="none" xmlns="http://www.w3.org/2000/svg">
<path fill-rule="evenodd" clip-rule="evenodd" d="M12.0856 8.84354L10.8872 8.25471C10.5563 8.09331 10.4192 7.69353 10.581 7.36178C10.7428 7.03002 11.1422 6.89193 11.4731 7.05333L12.6574 7.63095C12.946 7.77168 13.0903 7.84205 13.2238 7.79267C13.3574 7.74329 13.4205 7.59882 13.5465 7.30988C14.0437 6.17056 14.2272 5.41113 13.9808 4.69252C13.7338 3.97223 13.1212 3.48663 12.026 2.89427C11.8088 2.77679 11.7002 2.71806 11.606 2.72339C11.5119 2.72872 11.3389 2.849 10.9931 3.08956C10.6089 3.35672 10.0961 3.41384 9.64652 3.19456C9.19693 2.97528 8.92621 2.53601 8.90025 2.06883C8.87687 1.64817 8.86519 1.43784 8.81141 1.36036C8.75764 1.28287 8.64449 1.23346 8.4182 1.13463C7.27712 0.636283 6.51734 0.452537 5.79766 0.701344C5.01653 0.971395 4.51063 1.6722 3.8437 2.95459C3.75767 3.12002 3.82571 3.32343 3.99289 3.40497L5.48118 4.13086C5.81211 4.29226 5.94921 4.69204 5.7874 5.0238C5.6256 5.35555 5.22616 5.49364 4.89523 5.33224L3.39425 4.60555C3.22889 4.52549 3.02977 4.59465 2.94903 4.76019L1.92319 6.86347C0.818313 9.12881 0.265873 10.2615 0.624633 11.3076C0.871648 12.0279 1.48421 12.5135 2.57943 13.1059C2.79663 13.2233 2.90523 13.2821 2.99939 13.2768C3.09356 13.2714 3.2665 13.1511 3.61237 12.9106C3.9965 12.6434 4.50932 12.5863 4.95891 12.8056C5.4085 13.0249 5.67921 13.4641 5.70517 13.9313C5.72855 14.352 5.74024 14.5623 5.79401 14.6398C5.84779 14.7173 5.96094 14.7667 6.18723 14.8655C7.3283 15.3639 8.08809 15.5476 8.80777 15.2988C9.85301 14.9374 10.4054 13.8048 11.5103 11.5394L12.3901 9.73562C12.5278 9.45321 12.5967 9.312 12.5522 9.18143C12.5076 9.05087 12.3669 8.98176 12.0856 8.84354ZM9.07636 5.88434L7.87796 5.29985C7.54704 5.13845 7.1476 5.27654 6.98579 5.60829C6.82399 5.94004 6.96109 6.33982 7.29201 6.50123L8.49041 7.08572C8.82133 7.24713 9.22077 7.10903 9.38258 6.77728C9.54438 6.44553 9.40728 6.04575 9.07636 5.88434Z" fill="white"/>
</svg>
