<svg width="18" height="20" viewBox="0 0 18 20" fill="none" xmlns="http://www.w3.org/2000/svg">
<path d="M18 10C18 15.5228 15.9277 20 13.3714 20H5.65714C6.5236 19.4385 7.31261 18.4506 7.85617 17.2763C8.72999 15.3884 9.25714 12.8154 9.25714 10C9.25714 7.18462 8.72999 4.61163 7.85617 2.72375C7.31261 1.54939 6.5236 0.561468 5.65714 0H13.3714C15.9277 0 18 4.47715 18 10Z" fill="white" />
<path fill-rule="evenodd" clip-rule="evenodd" d="M1.31038 3.13411C0.508983 4.86553 0 7.29254 0 10C0 12.7075 0.508983 15.1345 1.31038 16.8659C2.1335 18.6442 3.16457 19.5 4.11429 19.5C5.064 19.5 6.09507 18.6442 6.91819 16.8659C7.71959 15.1345 8.22857 12.7075 8.22857 10C8.22857 7.29254 7.71959 4.86553 6.91819 3.13411C6.09507 1.35577 5.064 0.5 4.11429 0.5C3.16457 0.5 2.1335 1.35577 1.31038 3.13411ZM2.57143 10C2.57143 13.3137 3.26219 16 4.11429 16C4.90107 16 5.5503 13.7097 5.64521 10.75H4.62857C4.20252 10.75 3.85714 10.4142 3.85714 10C3.85714 9.58579 4.20252 9.25 4.62857 9.25H5.64521C5.5503 6.29027 4.90107 4 4.11429 4C3.26219 4 2.57143 6.68629 2.57143 10Z" fill="white"/>
</svg>
