<svg width="113" height="83" viewBox="0 0 113 83" fill="none" xmlns="http://www.w3.org/2000/svg">
<g filter="url(#filter0_d_43_2072)">
<path d="M85.8418 23L6.00024 28.0325L7.50998 51.9849L82.3791 47.2659L85.8418 23Z" fill="#12FF51"/>
<path d="M85.7789 22.002L87.0054 21.9247L86.8318 23.1413L83.3691 47.4072L83.2541 48.2127L82.442 48.2639L7.57289 52.983L6.57487 53.0459L6.51196 52.0478L5.00222 28.0954L4.93931 27.0974L5.93733 27.0345L85.7789 22.002Z" stroke="white" stroke-width="2"/>
</g>
<path d="M30.7299 34.8502L32.2718 38.9013L34.7659 34.5958L37.0294 34.4532L36.0519 43.1719L33.8842 43.3086L34.44 38.3919L32.7784 41.4064L31.2095 41.5052L30.2124 38.6583L29.6566 43.575L27.5009 43.7109L28.4784 34.9922L30.7299 34.8502ZM43.77 42.6855L37.7579 43.0644L38.7354 34.3456L44.7474 33.9667L44.5299 35.8561L40.6735 36.0992L40.5 37.7334L43.6856 37.5326L43.4681 39.422L40.2824 39.6228L40.1312 41.0391L43.9875 40.796L43.77 42.6855ZM49.201 33.6018C51.1251 33.4805 52.1368 34.2063 52.2359 35.7792C52.2525 36.0427 52.2425 36.3279 52.2057 36.6348L51.9375 39.0565C51.8158 40.1784 51.4525 41.0269 50.8475 41.6021C50.2425 42.1773 49.3611 42.5014 48.2034 42.5743C47.0457 42.6473 46.2224 42.4307 45.7336 41.9244C45.3991 41.5768 45.2114 41.0796 45.1707 40.4329C45.1526 40.1455 45.1646 39.8281 45.2069 39.4807L45.4751 37.0591C45.7154 34.8956 46.9574 33.7432 49.201 33.6018ZM48.4098 40.6977C48.809 40.6725 49.1218 40.5486 49.3482 40.3259C49.5747 40.1032 49.7182 39.7094 49.7788 39.1445L50.041 36.8194C50.0549 36.6582 50.0578 36.5137 50.0498 36.3859C50.009 35.7392 49.6613 35.4365 49.0066 35.4778C48.1852 35.5456 47.7236 36.0436 47.6218 36.9718L47.3596 39.2969C47.3402 39.4986 47.3373 39.7072 47.3509 39.9227C47.3861 40.4816 47.7391 40.7399 48.4098 40.6977ZM60.2391 32.9903L60.4469 39.5301L60.7223 39.5128L62.3948 32.8544L64.7421 32.7064L62.3275 41.5158L58.7346 41.7422L58.71 36.2008L57.4532 41.823L53.8603 42.0495L53.4006 33.4213L55.748 33.2733L55.9438 39.814L56.2193 39.7966L57.9037 33.1375L60.2391 32.9903Z" fill="black"/>
<defs>
<filter id="filter0_d_43_2072" x="-20.1216" y="0.849365" width="132.291" height="81.2574" filterUnits="userSpaceOnUse" color-interpolation-filters="sRGB">
<feFlood flood-opacity="0" result="BackgroundImageFix"/>
<feColorMatrix in="SourceAlpha" type="matrix" values="0 0 0 0 0 0 0 0 0 0 0 0 0 0 0 0 0 0 127 0" result="hardAlpha"/>
<feOffset dy="4"/>
<feGaussianBlur stdDeviation="12"/>
<feComposite in2="hardAlpha" operator="out"/>
<feColorMatrix type="matrix" values="0 0 0 0 0.478431 0 0 0 0 0.423529 0 0 0 0 0.952941 0 0 0 0.4 0"/>
<feBlend mode="normal" in2="BackgroundImageFix" result="effect1_dropShadow_43_2072"/>
<feBlend mode="normal" in="SourceGraphic" in2="effect1_dropShadow_43_2072" result="shape"/>
</filter>
</defs>
</svg>
