<svg width="114" height="83" viewBox="0 0 114 83" fill="none" xmlns="http://www.w3.org/2000/svg">
<g filter="url(#filter0_d_144_2875)">
<path d="M86.8418 23L7.00024 28.0325L8.50998 51.9849L83.3791 47.2659L86.8418 23Z" fill="#7A6CF3"/>
<path d="M86.7789 22.002L88.0054 21.9247L87.8318 23.1413L84.3691 47.4072L84.2541 48.2127L83.442 48.2639L8.57289 52.983L7.57487 53.0459L7.51196 52.0478L6.00222 28.0954L5.93931 27.0974L6.93733 27.0345L86.7789 22.002Z" stroke="white" stroke-width="2"/>
</g>
<path d="M23.9808 35.3387C24.8909 35.2813 25.5502 35.4401 25.9586 35.8152C26.2652 36.1005 26.4331 36.4746 26.4623 36.9377C26.4723 37.0974 26.4669 37.2661 26.4461 37.4438L26.3745 38.0254C26.3154 38.486 26.1661 38.8522 25.9267 39.1237C25.6953 39.3948 25.4838 39.5364 25.2922 39.5485L25.2862 39.6451C25.5098 39.631 25.7451 39.7404 25.9923 39.9733C26.2394 40.2062 26.3736 40.4903 26.3947 40.8257C26.4033 40.9614 26.3963 41.1061 26.374 41.2598L26.3255 41.6356C26.241 42.3303 25.9676 42.8886 25.5053 43.3106C25.0509 43.732 24.3925 43.9699 23.5302 44.0242L19.5302 44.2763L20.5076 35.5576L23.9808 35.3387ZM23.2245 40.5085L22.0867 40.5802L21.9035 42.251L23.0412 42.1793C23.0572 42.1783 23.0731 42.1773 23.0891 42.1763C23.4564 42.1531 23.7425 42.0509 23.9475 41.8697C24.152 41.6805 24.2465 41.4621 24.2309 41.2146C24.1987 40.7036 23.8632 40.4682 23.2245 40.5085ZM23.344 37.2545L22.4458 37.3111L22.2469 39.1152L23.1331 39.0594C23.8996 39.011 24.2617 38.6516 24.2194 37.9809C24.2048 37.7493 24.1212 37.5662 23.9684 37.4316C23.8236 37.2964 23.6155 37.2374 23.344 37.2545ZM31.5112 34.7798C33.4354 34.6586 34.4471 35.3844 34.5462 36.9572C34.5628 37.2207 34.5527 37.5059 34.516 37.8128L34.2478 40.2345C34.1261 41.3564 33.7628 42.2049 33.1578 42.7801C32.5527 43.3553 31.6714 43.6794 30.5137 43.7524C29.356 43.8253 28.5327 43.6087 28.0439 43.1024C27.7094 42.7548 27.5217 42.2576 27.481 41.6109C27.4628 41.3235 27.4749 41.0061 27.5171 40.6587L27.7853 38.2371C28.0257 36.0737 29.2677 34.9213 31.5112 34.7798ZM30.72 41.8757C31.1192 41.8505 31.4321 41.7266 31.6585 41.5039C31.8849 41.2812 32.0285 40.8874 32.089 40.3225L32.3513 37.9974C32.3652 37.8362 32.3681 37.6917 32.3601 37.564C32.3193 36.9172 31.9716 36.6145 31.3169 36.6558C30.4955 36.7236 30.0339 37.2216 29.9321 38.1499L29.6698 40.475C29.6505 40.6766 29.6476 40.8852 29.6612 41.1007C29.6964 41.6596 30.0494 41.9179 30.72 41.8757ZM42.9785 34.1412L42.013 42.8592L39.8453 42.9959L38.0389 38.3723L37.5219 43.1423L35.3542 43.2789L36.3317 34.5602L38.5593 34.4198L40.3221 38.7334L40.8228 34.2771L42.9785 34.1412ZM49.6058 41.7554C49.0083 42.3221 48.1307 42.642 46.973 42.7149C45.8153 42.7879 44.996 42.571 44.5152 42.0643C44.1726 41.7171 43.981 41.2202 43.9402 40.5735C43.9221 40.286 43.9342 39.9686 43.9764 39.6213L44.5985 34.0391L46.7542 33.9032L46.1291 39.4375C46.1098 39.6391 46.1069 39.8477 46.1205 40.0633C46.1557 40.6222 46.5086 40.8805 47.1793 40.8382C47.5785 40.8131 47.8913 40.6891 48.1178 40.4665C48.3442 40.2438 48.4877 39.85 48.5483 39.285L49.1734 33.7508L51.3291 33.6149L50.7071 39.1971C50.5779 40.3274 50.2108 41.1802 49.6058 41.7554ZM54.118 39.6314C54.1527 40.1823 54.5653 40.4328 55.3557 40.383C56.1542 40.3327 56.5378 40.06 56.5066 39.565C56.49 39.3015 56.3406 39.0945 56.0586 38.9439C55.7766 38.7934 55.4364 38.6745 55.0382 38.5874C54.6479 38.4998 54.2526 38.3964 53.8523 38.2774C53.4595 38.1498 53.1176 37.9389 52.8265 37.6447C52.5349 37.3424 52.3742 36.9557 52.3446 36.4847C52.2182 34.4807 53.4445 33.3974 56.0234 33.2348C56.9655 33.1754 57.6874 33.3103 58.1891 33.6394C58.6983 33.96 58.9728 34.4357 59.0125 35.0664C59.0271 35.298 59.0093 35.5235 58.959 35.7431C58.9162 35.9542 58.8656 36.1057 58.8073 36.1976L58.7205 36.3473L56.6007 36.4809C56.7648 36.2862 56.8381 36.0492 56.8204 35.7697C56.7877 35.2507 56.432 35.0126 55.7534 35.0554C54.8991 35.1093 54.489 35.4076 54.5233 35.9506C54.5404 36.222 54.6897 36.4291 54.9712 36.5716C55.2527 36.7142 55.5882 36.8213 55.9774 36.893C56.3742 36.9561 56.7725 37.0432 57.1722 37.1543C57.572 37.2654 57.9177 37.4721 58.2093 37.7743C58.5004 38.0686 58.6618 38.4672 58.6935 38.9702C58.7574 39.9842 58.5016 40.7578 57.926 41.2911C57.3499 41.8164 56.4311 42.1188 55.1696 42.1983C53.9081 42.2778 53.0317 42.1086 52.5404 41.6907C52.176 41.377 51.9751 40.9247 51.9379 40.3339C51.9238 40.1103 51.9324 39.8653 51.9637 39.5988L51.9875 39.4049L54.1433 39.269L54.1284 39.4143C54.1174 39.4951 54.114 39.5675 54.118 39.6314ZM65.7632 41.3622L59.7511 41.7412L60.7286 33.0224L66.7407 32.6435L66.5231 34.5329L62.6668 34.776L62.4932 36.4101L65.6789 36.2093L65.4613 38.0988L62.2756 38.2996L62.1244 39.7159L65.9808 39.4728L65.7632 41.3622ZM69.2754 38.676C69.3102 39.2269 69.7227 39.4774 70.5132 39.4276C71.3116 39.3773 71.6952 39.1046 71.664 38.6096C71.6474 38.3461 71.4981 38.1391 71.216 37.9885C70.934 37.838 70.5938 37.7191 70.1956 37.632C69.8053 37.5444 69.41 37.4411 69.0097 37.322C68.6169 37.1945 68.275 36.9836 67.9839 36.6893C67.6923 36.387 67.5317 36.0004 67.502 35.5293C67.3757 33.5253 68.6019 32.442 71.1808 32.2794C72.123 32.2201 72.8449 32.3549 73.3466 32.684C73.8557 33.0046 74.1302 33.4803 74.17 34.111C74.1846 34.3426 74.1667 34.5681 74.1164 34.7877C74.0736 34.9989 74.023 35.1503 73.9647 35.2422L73.878 35.3919L71.7582 35.5256C71.9222 35.3308 71.9955 35.0938 71.9779 34.8143C71.9451 34.2954 71.5895 34.0573 70.9108 34.1C70.0565 34.1539 69.6465 34.4523 69.6807 34.9952C69.6978 35.2666 69.8471 35.4737 70.1286 35.6162C70.4102 35.7588 70.7456 35.8659 71.1348 35.9376C71.5316 36.0007 71.9299 36.0879 72.3297 36.1989C72.7294 36.31 73.0751 36.5167 73.3667 36.8189C73.6578 37.1132 73.8192 37.5118 73.8509 38.0148C73.9148 39.0288 73.659 39.8025 73.0834 40.3357C72.5073 40.861 71.5885 41.1634 70.327 41.2429C69.0655 41.3224 68.1891 41.1532 67.6978 40.7353C67.3334 40.4216 67.1325 39.9693 67.0953 39.3785C67.0812 39.1549 67.0898 38.9099 67.1211 38.6434L67.145 38.4495L69.3007 38.3137L69.2858 38.4589C69.2749 38.5397 69.2714 38.6121 69.2754 38.676Z" fill="black"/>
<defs>
<filter id="filter0_d_144_2875" x="-19.1216" y="0.849365" width="132.291" height="81.2574" filterUnits="userSpaceOnUse" color-interpolation-filters="sRGB">
<feFlood flood-opacity="0" result="BackgroundImageFix"/>
<feColorMatrix in="SourceAlpha" type="matrix" values="0 0 0 0 0 0 0 0 0 0 0 0 0 0 0 0 0 0 127 0" result="hardAlpha"/>
<feOffset dy="4"/>
<feGaussianBlur stdDeviation="12"/>
<feComposite in2="hardAlpha" operator="out"/>
<feColorMatrix type="matrix" values="0 0 0 0 0.478431 0 0 0 0 0.423529 0 0 0 0 0.952941 0 0 0 0.4 0"/>
<feBlend mode="normal" in2="BackgroundImageFix" result="effect1_dropShadow_144_2875"/>
<feBlend mode="normal" in="SourceGraphic" in2="effect1_dropShadow_144_2875" result="shape"/>
</filter>
</defs>
</svg>
