<svg width="113" height="83" viewBox="0 0 113 83" fill="none" xmlns="http://www.w3.org/2000/svg">
<g filter="url(#filter0_d_43_1978)">
<path d="M85.8416 23L6 28.0325L7.50974 51.9849L82.3788 47.2659L85.8416 23Z" fill="#7A6CF3"/>
<path d="M85.7786 22.002L87.0051 21.9247L86.8315 23.1413L83.3688 47.4072L83.2539 48.2127L82.4417 48.2639L7.57264 52.983L6.57462 53.0459L6.51172 52.0478L5.00198 28.0954L4.93907 27.0974L5.93709 27.0345L85.7786 22.002Z" stroke="white" stroke-width="2"/>
</g>
<path d="M24.6007 41.4289C24.6355 41.9798 25.048 42.2303 25.8385 42.1805C26.6369 42.1302 27.0205 41.8575 26.9893 41.3625C26.9727 41.099 26.8234 40.892 26.5413 40.7414C26.2593 40.5909 25.9192 40.472 25.5209 40.3849C25.1306 40.2973 24.7353 40.194 24.335 40.0749C23.9422 39.9474 23.6003 39.7365 23.3092 39.4422C23.0176 39.1399 22.857 38.7533 22.8273 38.2822C22.701 36.2782 23.9272 35.1949 26.5061 35.0324C27.4483 34.973 28.1702 35.1078 28.6719 35.4369C29.181 35.7575 29.4555 36.2332 29.4953 36.8639C29.5099 37.0955 29.492 37.3211 29.4417 37.5407C29.3989 37.7518 29.3484 37.9032 29.29 37.9951L29.2033 38.1448L27.0835 38.2785C27.2475 38.0838 27.3208 37.8467 27.3032 37.5672C27.2705 37.0483 26.9148 36.8102 26.2361 36.8529C25.3818 36.9068 24.9718 37.2052 25.006 37.7481C25.0231 38.0196 25.1724 38.2266 25.4539 38.3691C25.7355 38.5117 26.0709 38.6188 26.4602 38.6905C26.8569 38.7537 27.2552 38.8408 27.655 38.9518C28.0547 39.0629 28.4004 39.2696 28.692 39.5718C28.9831 39.8661 29.1445 40.2647 29.1762 40.7677C29.2401 41.7817 28.9843 42.5554 28.4087 43.0886C27.8326 43.6139 26.9138 43.9163 25.6523 43.9958C24.3908 44.0753 23.5144 43.9061 23.0232 43.4882C22.6587 43.1745 22.4579 42.7222 22.4206 42.1314C22.4065 41.9079 22.4151 41.6628 22.4464 41.3963L22.4703 41.2024L24.626 41.0666L24.6111 41.2118C24.6002 41.2926 24.5967 41.365 24.6007 41.4289ZM34.1165 40.6608L32.6913 40.7506L32.3896 43.4028L30.2339 43.5387L31.2113 34.8199L34.8641 34.5897C35.7663 34.5328 36.4221 34.6999 36.8315 35.0909C37.1311 35.3927 37.2965 35.7911 37.3277 36.2861C37.3382 36.4538 37.3334 36.6304 37.313 36.8161L37.1588 38.1845C37.0808 38.8547 36.7639 39.4238 36.2083 39.8917C35.6521 40.3515 34.9548 40.6079 34.1165 40.6608ZM34.2273 36.5056L33.1495 36.5735L32.8969 38.8619L33.9628 38.7947C34.6175 38.7535 34.9784 38.4381 35.0455 37.8488L35.0983 37.3524C35.1098 37.2796 35.1117 37.1833 35.1042 37.0635C35.0966 36.9437 35.0284 36.8158 34.8996 36.6796C34.7708 36.5434 34.5467 36.4854 34.2273 36.5056ZM43.8831 42.6784L37.871 43.0573L38.8485 34.3386L44.8606 33.9596L44.643 35.8491L40.7867 36.0921L40.6131 37.7263L43.7988 37.5255L43.5812 39.4149L40.3956 39.6157L40.2443 41.032L44.1007 40.7889L43.8831 42.6784ZM48.3032 42.5681C47.1615 42.6401 46.3554 42.4424 45.8851 41.975C45.5595 41.6429 45.3769 41.1614 45.3371 40.5307C45.32 40.2592 45.3296 39.966 45.3659 39.6511L45.6833 36.8656C45.9152 34.823 47.149 33.7312 49.3846 33.5903C50.3107 33.5319 51.0259 33.6872 51.5301 34.0563C52.0338 34.4173 52.3073 34.9411 52.3506 35.6278C52.3707 35.9471 52.343 36.2695 52.2673 36.5949C52.1991 36.9118 52.1259 37.1489 52.0476 37.3061L51.931 37.554L49.8112 37.6876C50.0555 37.3676 50.1601 36.9281 50.1248 36.3692C50.1062 36.0738 50.0158 35.8471 49.8535 35.689C49.6907 35.5229 49.4617 35.4491 49.1662 35.4678C48.3598 35.5186 47.909 35.9959 47.8136 36.8997L47.547 39.3453C47.5201 39.5554 47.513 39.7603 47.5256 39.9599C47.5588 40.4868 47.8908 40.7304 48.5215 40.6907C49.28 40.6429 49.7082 40.187 49.806 39.3231L51.9618 39.1873L51.9238 39.5384C51.7217 41.4188 50.5148 42.4287 48.3032 42.5681ZM56.15 33.248L55.1845 41.966L53.0168 42.1027L53.9942 33.3839L56.15 33.248ZM61.1398 41.5907L61.0932 39.7059L59.0932 39.8319L58.6248 41.7492L56.3374 41.8934L58.8718 33.0765L62.8239 32.8274L63.4153 41.4472L61.1398 41.5907ZM60.2374 35.0946L59.483 38.1962L61.0519 38.0973L60.9919 35.047L60.2374 35.0946ZM70.0097 41.0316L64.5486 41.3758L65.5261 32.6571L67.6818 32.5212L66.9219 39.3505L70.2273 39.1422L70.0097 41.0316Z" fill="black"/>
<defs>
<filter id="filter0_d_43_1978" x="-20.1218" y="0.849365" width="132.291" height="81.2574" filterUnits="userSpaceOnUse" color-interpolation-filters="sRGB">
<feFlood flood-opacity="0" result="BackgroundImageFix"/>
<feColorMatrix in="SourceAlpha" type="matrix" values="0 0 0 0 0 0 0 0 0 0 0 0 0 0 0 0 0 0 127 0" result="hardAlpha"/>
<feOffset dy="4"/>
<feGaussianBlur stdDeviation="12"/>
<feComposite in2="hardAlpha" operator="out"/>
<feColorMatrix type="matrix" values="0 0 0 0 0.478431 0 0 0 0 0.423529 0 0 0 0 0.952941 0 0 0 0.4 0"/>
<feBlend mode="normal" in2="BackgroundImageFix" result="effect1_dropShadow_43_1978"/>
<feBlend mode="normal" in="SourceGraphic" in2="effect1_dropShadow_43_1978" result="shape"/>
</filter>
</defs>
</svg>
