<svg width="113" height="83" viewBox="0 0 113 83" fill="none" xmlns="http://www.w3.org/2000/svg">
<g filter="url(#filter0_d_43_2011)">
<path d="M85.8416 23L6 28.0325L7.50974 51.9849L82.3788 47.2659L85.8416 23Z" fill="#E9B308"/>
<path d="M85.7786 22.002L87.0051 21.9247L86.8315 23.1413L83.3688 47.4072L83.2539 48.2127L82.4417 48.2639L7.57264 52.983L6.57462 53.0459L6.51172 52.0478L5.00198 28.0954L4.93907 27.0974L5.93709 27.0345L85.7786 22.002Z" stroke="white" stroke-width="2"/>
</g>
<path d="M35.3705 36.4334L32.4244 36.6191L31.6645 43.4485L29.4968 43.5851L30.2567 36.7558L27.2986 36.9422L27.5161 35.0528L35.5881 34.544L35.3705 36.4334ZM39.7061 34.2003C41.6303 34.079 42.642 34.8048 42.7411 36.3777C42.7577 36.6412 42.7476 36.9264 42.7109 37.2333L42.4427 39.655C42.321 40.7768 41.9577 41.6254 41.3526 42.2006C40.7476 42.7758 39.8663 43.0998 38.7086 43.1728C37.5509 43.2458 36.7276 43.0291 36.2388 42.5229C35.9043 42.1752 35.7166 41.6781 35.6759 41.0313C35.6577 40.7439 35.6698 40.4265 35.712 40.0792L35.9802 37.6575C36.2206 35.4941 37.4626 34.3417 39.7061 34.2003ZM38.9149 41.2961C39.3141 41.271 39.627 41.147 39.8534 40.9243C40.0798 40.7017 40.2233 40.3079 40.2839 39.7429L40.5462 37.4178C40.5601 37.2566 40.563 37.1122 40.5549 36.9844C40.5142 36.3377 40.1664 36.035 39.5117 36.0762C38.6904 36.144 38.2288 36.6421 38.127 37.5703L37.8647 39.8954C37.8454 40.097 37.8425 40.3056 37.8561 40.5212C37.8913 41.0801 38.2443 41.3384 38.9149 41.2961ZM47.8799 33.7693C48.9259 33.7033 49.689 33.9198 50.1693 34.4185C50.5218 34.7971 50.717 35.2858 50.7547 35.8846C50.7683 36.1002 50.7627 36.329 50.7379 36.571L50.4391 39.2712C50.3363 40.1834 49.9906 40.9307 49.4021 41.5128C48.8135 42.095 48.0242 42.4173 47.0342 42.4797L43.5491 42.6994L44.5266 33.9806L47.8799 33.7693ZM47.2432 35.6851L46.4647 35.7342L45.9224 40.6741L47.0602 40.6024C47.4354 40.5787 47.7206 40.4605 47.9156 40.2478C48.118 40.0267 48.2446 39.682 48.2953 39.2139L48.5188 37.2279C48.5396 37.0503 48.5456 36.8896 48.5365 36.7459C48.4887 35.9874 48.0576 35.6338 47.2432 35.6851ZM55.7189 41.9323L55.6722 40.0475L53.6722 40.1736L53.2038 42.0908L50.9164 42.235L53.4508 33.4181L57.4029 33.169L57.9943 41.7889L55.7189 41.9323ZM54.8164 35.4362L54.062 38.5378L55.6309 38.4389L55.5709 35.3887L54.8164 35.4362ZM62.2878 35.9031L64.1208 32.7456L66.2766 32.6097L62.9223 38.1477L62.5446 41.5021L60.3769 41.6387L60.7546 38.2843L58.5998 33.0936L60.8873 32.9494L62.0124 35.9205L62.2878 35.9031Z" fill="black"/>
<defs>
<filter id="filter0_d_43_2011" x="-20.1218" y="0.849365" width="132.291" height="81.2574" filterUnits="userSpaceOnUse" color-interpolation-filters="sRGB">
<feFlood flood-opacity="0" result="BackgroundImageFix"/>
<feColorMatrix in="SourceAlpha" type="matrix" values="0 0 0 0 0 0 0 0 0 0 0 0 0 0 0 0 0 0 127 0" result="hardAlpha"/>
<feOffset dy="4"/>
<feGaussianBlur stdDeviation="12"/>
<feComposite in2="hardAlpha" operator="out"/>
<feColorMatrix type="matrix" values="0 0 0 0 0.478431 0 0 0 0 0.423529 0 0 0 0 0.952941 0 0 0 0.4 0"/>
<feBlend mode="normal" in2="BackgroundImageFix" result="effect1_dropShadow_43_2011"/>
<feBlend mode="normal" in="SourceGraphic" in2="effect1_dropShadow_43_2011" result="shape"/>
</filter>
</defs>
</svg>
