<svg width="85" height="35" viewBox="0 0 85 35" fill="none" xmlns="http://www.w3.org/2000/svg">
<path d="M2.57267 2.00198L1.34619 1.92467L1.51979 3.14127L4.9825 27.4072L5.09746 28.2127L5.90957 28.2639L80.7787 32.983L81.7767 33.0459L81.8396 32.0478L83.3493 8.09538L83.4122 7.09736L82.4142 7.03445L2.57267 2.00198Z" fill="#E9B308" stroke="white" stroke-width="2"/>
<path d="M53.5924 12.5918C55.7897 12.7454 56.8193 13.8092 56.6813 15.783C56.6559 16.1461 56.5907 16.5439 56.4856 16.9763L56.0137 18.908C55.672 20.3156 55.095 21.3419 54.2827 21.9868C53.4797 22.6324 52.4032 22.9079 51.0532 22.8135C49.7124 22.7198 48.8101 22.3105 48.3462 21.5857C48.0349 21.0868 47.9076 20.4323 47.9642 19.6223C47.9916 19.2312 48.0585 18.8102 48.1648 18.3592L48.6367 16.4274C49.3149 13.6867 50.9668 12.4082 53.5924 12.5918ZM50.5363 19.3671C50.479 20.1864 50.8275 20.6224 51.5816 20.6752C52.0471 20.7077 52.435 20.5805 52.7451 20.2934C53.0645 20.007 53.322 19.4683 53.5177 18.6774L53.9678 16.8563C54.0452 16.553 54.0917 16.2896 54.1073 16.0661C54.1659 15.2282 53.8227 14.7832 53.0779 14.7311C52.1269 14.6833 51.4832 15.326 51.1467 16.6591L50.6826 18.4791C50.6027 18.8197 50.5539 19.1157 50.5363 19.3671Z" fill="black"/>
<path d="M42.6289 16.0134L42.315 20.5024C42.1994 22.1559 40.7665 23.4014 39.113 23.2858L33.1277 22.8673C31.4742 22.7517 30.2286 21.3188 30.3442 19.6653L30.6581 15.1763C30.6869 14.7648 31.0471 14.4516 31.4586 14.4804L32.9325 14.5835C33.344 14.6123 33.6572 14.9725 33.6284 15.384L33.4641 17.7332C33.4254 18.2869 33.6966 18.8171 34.1646 19.113C34.3732 19.2478 34.6084 19.3244 34.8553 19.3417C35.1396 19.3616 35.4297 19.2992 35.6881 19.1518L36.4313 18.7377L37.0588 19.2251C37.4937 19.5638 38.0747 19.642 38.5793 19.4141C39.0914 19.1868 39.4332 18.707 39.4725 18.1459L39.6362 15.8041C39.665 15.3926 40.0252 15.0795 40.4367 15.1082L41.933 15.2129C42.3445 15.2416 42.6577 15.6019 42.6289 16.0134Z" fill="black"/>
<path d="M44.013 12.351L43.9607 13.0991C43.9031 13.9221 43.4595 14.5678 42.3597 14.4909L31.1371 13.7061C29.9924 13.626 29.6878 12.9281 29.7454 12.1051L29.7977 11.3569C29.8553 10.534 30.254 9.88518 31.3987 9.96523L42.6213 10.75C43.7211 10.8269 44.0705 11.528 44.013 12.351Z" fill="black"/>
<path d="M36.7405 10.3387L32.6105 10.0499C32.3755 9.75531 32.4128 9.32937 32.701 9.07886L33.8377 8.09075C34.1339 7.83328 34.5903 7.8652 34.8477 8.16138L36.7405 10.3387Z" fill="black"/>
<path d="M41.4018 10.6646L37.2719 10.3758L39.4492 8.4831C39.7454 8.22563 40.2018 8.25755 40.4593 8.55373L41.4474 9.69042C41.6979 9.9786 41.6755 10.4056 41.4018 10.6646Z" fill="black"/>
<path d="M38.17 14.9497C38.5815 14.9785 38.8947 15.3387 38.8659 15.7502L38.7022 18.092C38.6603 18.6905 37.9693 19.0031 37.4991 18.6318L36.8571 18.1359C36.6217 17.954 36.3 17.9315 36.0341 18.0783L35.2984 18.493C34.7816 18.7877 34.1483 18.3825 34.1896 17.7914L34.3544 15.4347C34.3832 15.0232 34.7434 14.7101 35.1549 14.7388L38.17 14.9497Z" fill="black"/>
</svg>
