<svg width="134" height="83" viewBox="0 0 134 83" fill="none" xmlns="http://www.w3.org/2000/svg">
<g filter="url(#filter0_d_144_2872)">
<path d="M106.842 23L27.0002 28.0325L28.51 51.9849L103.379 47.2659L106.842 23Z" fill="#E9B308"/>
<path d="M106.779 22.002L108.005 21.9247L107.832 23.1413L104.369 47.4072L104.254 48.2127L103.442 48.2639L28.5729 52.983L27.5749 53.0459L27.512 52.0478L26.0022 28.0954L25.9393 27.0974L26.9373 27.0345L106.779 22.002Z" stroke="white" stroke-width="2"/>
</g>
<path d="M45.1447 35.2654C46.0549 35.208 46.7142 35.3668 47.1226 35.7419C47.4292 36.0272 47.597 36.4013 47.6262 36.8644C47.6363 37.0241 47.6309 37.1928 47.61 37.3704L47.5385 37.9521C47.4793 38.4127 47.3301 38.7788 47.0907 39.0504C46.8593 39.3215 46.6478 39.4631 46.4562 39.4752L46.4502 39.5718C46.6738 39.5577 46.9091 39.6671 47.1563 39.9C47.4034 40.1329 47.5375 40.417 47.5587 40.7524C47.5672 40.8881 47.5603 41.0328 47.5379 41.1865L47.4895 41.5623C47.405 42.257 47.1316 42.8153 46.6692 43.2372C46.2148 43.6587 45.5565 43.8965 44.6942 43.9509L40.6941 44.203L41.6716 35.4843L45.1447 35.2654ZM44.3884 40.4352L43.2507 40.5069L43.0674 42.1777L44.2052 42.106C44.2212 42.105 44.2371 42.104 44.2531 42.103C44.6204 42.0798 44.9065 41.9776 45.1115 41.7964C45.316 41.6071 45.4105 41.3888 45.3949 41.1413C45.3626 40.6303 45.0272 40.3949 44.3884 40.4352ZM44.508 37.1812L43.6098 37.2378L43.4109 39.0419L44.2971 38.986C45.0636 38.9377 45.4257 38.5782 45.3834 37.9076C45.3688 37.676 45.2851 37.4929 45.1324 37.3583C44.9876 37.2231 44.7794 37.1641 44.508 37.1812ZM52.7469 43.4433L52.7003 41.5585L50.7002 41.6846L50.2319 43.6019L47.9444 43.746L50.4788 34.9291L54.431 34.68L55.0224 43.2999L52.7469 43.4433ZM51.8445 36.9472L51.0901 40.0488L52.659 39.9499L52.599 36.8997L51.8445 36.9472ZM61.6168 42.8843L56.1557 43.2285L57.1331 34.5097L59.2888 34.3738L58.5289 41.2032L61.8344 40.9948L61.6168 42.8843ZM66.84 42.555L66.7934 40.6702L64.7934 40.7963L64.325 42.7136L62.0376 42.8577L64.572 34.0408L68.5241 33.7917L69.1155 42.4116L66.84 42.555ZM65.9376 36.0589L65.1832 39.1605L66.7521 39.0616L66.6921 36.0114L65.9376 36.0589ZM77.8731 33.2025L76.9076 41.9205L74.7399 42.0571L72.9334 37.4336L72.4165 42.2035L70.2488 42.3402L71.2263 33.6214L73.4538 33.481L75.2167 37.7947L75.7173 33.3383L77.8731 33.2025ZM81.64 41.7905C80.4982 41.8625 79.6922 41.6648 79.2219 41.1975C78.8963 40.8653 78.7137 40.3838 78.6739 39.7531C78.6568 39.4816 78.6664 39.1884 78.7026 38.8735L79.02 36.088C79.252 34.0454 80.4858 32.9536 82.7213 32.8127C83.6475 32.7543 84.3627 32.9096 84.8669 33.2787C85.3706 33.6397 85.6441 34.1635 85.6874 34.8502C85.7075 35.1695 85.6797 35.4919 85.6041 35.8173C85.5359 36.1342 85.4626 36.3713 85.3844 36.5285L85.2677 36.7764L83.1479 36.91C83.3923 36.59 83.4968 36.1505 83.4616 35.5916C83.443 35.2962 83.3525 35.0695 83.1903 34.9114C83.0275 34.7453 82.7984 34.6715 82.503 34.6902C81.6966 34.741 81.2457 35.2183 81.1504 36.1221L80.8837 38.5677C80.8569 38.7778 80.8498 38.9827 80.8623 39.1823C80.8956 39.7092 81.2275 39.9528 81.8583 39.9131C82.6168 39.8653 83.0449 39.4094 83.1428 38.5455L85.2985 38.4097L85.2605 38.7608C85.0584 40.6412 83.8516 41.6511 81.64 41.7905ZM92.3656 40.9461L86.3535 41.3251L87.331 32.6063L93.3431 32.2274L93.1255 34.1168L89.2692 34.3599L89.0956 35.994L92.2813 35.7932L92.0637 37.6827L88.878 37.8835L88.7268 39.2998L92.5832 39.0567L92.3656 40.9461Z" fill="black"/>
<defs>
<filter id="filter0_d_144_2872" x="0.878418" y="0.849365" width="132.291" height="81.2574" filterUnits="userSpaceOnUse" color-interpolation-filters="sRGB">
<feFlood flood-opacity="0" result="BackgroundImageFix"/>
<feColorMatrix in="SourceAlpha" type="matrix" values="0 0 0 0 0 0 0 0 0 0 0 0 0 0 0 0 0 0 127 0" result="hardAlpha"/>
<feOffset dy="4"/>
<feGaussianBlur stdDeviation="12"/>
<feComposite in2="hardAlpha" operator="out"/>
<feColorMatrix type="matrix" values="0 0 0 0 0.478431 0 0 0 0 0.423529 0 0 0 0 0.952941 0 0 0 0.4 0"/>
<feBlend mode="normal" in2="BackgroundImageFix" result="effect1_dropShadow_144_2872"/>
<feBlend mode="normal" in="SourceGraphic" in2="effect1_dropShadow_144_2872" result="shape"/>
</filter>
</defs>
</svg>
