<svg width="85" height="35" viewBox="0 0 85 35" fill="none" xmlns="http://www.w3.org/2000/svg">
<path d="M2.57267 32.9829L1.34619 33.0602L1.51979 31.8436L4.9825 7.57771L5.09746 6.77215L5.90957 6.72096L80.7787 2.0019L81.7767 1.939L81.8396 2.93702L83.3493 26.8895L83.4122 27.8875L82.4142 27.9504L2.57267 32.9829Z" fill="#E9B308" stroke="white" stroke-width="2"/>
<path d="M17.7553 24.4835C15.4152 22.6806 12.6667 20.563 12.6667 16.8921C12.6667 12.8396 17.2502 9.96572 21.0001 13.8617L22.6667 15.5272C22.9109 15.7713 23.3066 15.7712 23.5506 15.5271C23.7947 15.2829 23.7946 14.8872 23.5505 14.6432L21.9405 13.0338C25.4738 10.4471 29.3334 13.1734 29.3334 16.8921C29.3334 20.563 26.5849 22.6806 24.2449 24.4835C24.0016 24.6709 23.7628 24.8549 23.532 25.0369C22.6667 25.719 21.8334 26.3612 21.0001 26.3612C20.1667 26.3612 19.3334 25.719 18.4682 25.0369C18.2373 24.8549 17.9985 24.6709 17.7553 24.4835Z" fill="black"/>
<path d="M38.7553 22.8444C36.4152 21.0414 33.6667 18.9238 33.6667 15.2529C33.6667 11.2005 38.2502 8.32656 42.0001 12.2225L43.6667 13.8881C43.9109 14.1321 44.3066 14.132 44.5506 13.8879C44.7947 13.6438 44.7946 13.2481 44.5505 13.004L42.9405 11.3946C46.4738 8.80791 50.3334 11.5342 50.3334 15.2529C50.3334 18.9238 47.5849 21.0414 45.2449 22.8444C45.0016 23.0318 44.7628 23.2158 44.532 23.3977C43.6667 24.0798 42.8334 24.722 42.0001 24.722C41.1667 24.722 40.3334 24.0798 39.4682 23.3977C39.2373 23.2158 38.9985 23.0318 38.7553 22.8444Z" fill="black"/>
<path d="M59.7553 21.2057C57.4152 19.4028 54.6667 17.2851 54.6667 13.6142C54.6667 9.5618 59.2502 6.68789 63.0001 10.5839L64.6667 12.2494C64.9109 12.4934 65.3066 12.4934 65.5506 12.2492C65.7947 12.0051 65.7946 11.6094 65.5505 11.3654L63.9405 9.75593C67.4738 7.16924 71.3334 9.89554 71.3334 13.6142C71.3334 17.2851 68.5849 19.4028 66.2449 21.2057C66.0016 21.3931 65.7628 21.5771 65.532 21.7591C64.6667 22.4411 63.8334 23.0833 63.0001 23.0833C62.1667 23.0833 61.3334 22.4411 60.4682 21.7591C60.2373 21.5771 59.9985 21.3931 59.7553 21.2057Z" fill="black"/>
</svg>
