<svg width="86" height="35" viewBox="0 0 86 35" fill="none" xmlns="http://www.w3.org/2000/svg">
<path d="M82.7789 2.00198L84.0054 1.92467L83.8318 3.14127L80.3691 27.4072L80.2541 28.2127L79.442 28.2639L4.57289 32.983L3.57487 33.0459L3.51196 32.0478L2.00222 8.09538L1.93931 7.09736L2.93733 7.03445L82.7789 2.00198Z" fill="#12FF51" stroke="white" stroke-width="2"/>
<path d="M29.8402 20.9095C29.8749 21.4604 30.2875 21.7109 31.078 21.6611C31.8764 21.6108 32.26 21.3381 32.2288 20.8431C32.2122 20.5796 32.0628 20.3726 31.7808 20.2221C31.4988 20.0715 31.1586 19.9527 30.7604 19.8655C30.3701 19.7779 29.9748 19.6746 29.5745 19.5555C29.1817 19.428 28.8398 19.2171 28.5487 18.9228C28.2571 18.6205 28.0965 18.2339 28.0668 17.7628C27.9404 15.7588 29.1667 14.6755 31.7456 14.513C32.6877 14.4536 33.4097 14.5884 33.9114 14.9175C34.4205 15.2381 34.695 15.7138 34.7348 16.3446C34.7493 16.5761 34.7315 16.8017 34.6812 17.0213C34.6384 17.2324 34.5878 17.3839 34.5295 17.4757L34.4427 17.6255L32.323 17.7591C32.487 17.5644 32.5603 17.3273 32.5427 17.0478C32.5099 16.5289 32.1543 16.2908 31.4756 16.3336C30.6213 16.3874 30.2113 16.6858 30.2455 17.2287C30.2626 17.5002 30.4119 17.7072 30.6934 17.8498C30.975 17.9923 31.3104 18.0994 31.6996 18.1711C32.0964 18.2343 32.4947 18.3214 32.8944 18.4325C33.2942 18.5435 33.6399 18.7502 33.9315 19.0524C34.2226 19.3467 34.384 19.7454 34.4157 20.2484C34.4796 21.2623 34.2238 22.036 33.6482 22.5692C33.0721 23.0945 32.1533 23.3969 30.8918 23.4764C29.6303 23.5559 28.7539 23.3867 28.2626 22.9688C27.8982 22.6551 27.6973 22.2029 27.6601 21.612C27.646 21.3885 27.6546 21.1434 27.6859 20.8769L27.7098 20.6831L29.8655 20.5472L29.8506 20.6924C29.8396 20.7733 29.8362 20.8456 29.8402 20.9095ZM39.5833 14.0189C41.5075 13.8977 42.5192 14.6235 42.6183 16.1963C42.6349 16.4598 42.6248 16.745 42.5881 17.0519L42.3199 19.4736C42.1982 20.5955 41.8348 21.444 41.2298 22.0192C40.6248 22.5944 39.7435 22.9185 38.5858 22.9915C37.4281 23.0644 36.6048 22.8478 36.116 22.3415C35.7815 21.9939 35.5938 21.4967 35.553 20.85C35.5349 20.5626 35.547 20.2452 35.5892 19.8978L35.8574 17.4762C36.0978 15.3128 37.3398 14.1604 39.5833 14.0189ZM38.7921 21.1148C39.1913 21.0896 39.5041 20.9657 39.7306 20.743C39.957 20.5203 40.1005 20.1265 40.1611 19.5616L40.4234 17.2365C40.4373 17.0753 40.4402 16.9308 40.4321 16.8031C40.3914 16.1563 40.0436 15.8536 39.3889 15.8949C38.5676 15.9627 38.106 16.4607 38.0042 17.389L37.7419 19.7141C37.7226 19.9157 37.7197 20.1243 37.7333 20.3398C37.7685 20.8987 38.1214 21.157 38.7921 21.1148ZM47.5363 13.5177C49.4605 13.3964 50.4721 14.1222 50.5713 15.6951C50.5879 15.9585 50.5778 16.2437 50.541 16.5507L50.2728 18.9723C50.1512 20.0942 49.7878 20.9427 49.1828 21.5179C48.5778 22.0931 47.6964 22.4172 46.5387 22.4902C45.381 22.5632 44.5578 22.3465 44.0689 21.8403C43.7344 21.4926 43.5468 20.9954 43.506 20.3487C43.4879 20.0613 43.4999 19.7439 43.5422 19.3966L43.8104 16.9749C44.0508 14.8115 45.2927 13.6591 47.5363 13.5177ZM46.7451 20.6135C47.1443 20.5883 47.4571 20.4644 47.6836 20.2417C47.91 20.019 48.0535 19.6252 48.1141 19.0603L48.3763 16.7352C48.3902 16.574 48.3931 16.4295 48.3851 16.3018C48.3443 15.6551 47.9966 15.3523 47.3419 15.3936C46.5205 15.4614 46.059 15.9594 45.9571 16.8877L45.6949 19.2128C45.6755 19.4144 45.6726 19.623 45.6862 19.8386C45.7215 20.3975 46.0744 20.6558 46.7451 20.6135ZM59.0036 12.879L58.0381 21.597L55.8704 21.7337L54.0639 17.1101L53.547 21.8801L51.3793 22.0167L52.3568 13.298L54.5843 13.1576L56.3472 17.4712L56.8478 13.0149L59.0036 12.879Z" fill="black"/>
</svg>
